<svg xmlns="http://www.w3.org/2000/svg" xmlns:xlink="http://www.w3.org/1999/xlink" viewBox="0 0 1920 1080"><defs><style>.cls-1{isolation:isolate;}.cls-2{fill:url(#linear-gradient);}.cls-3,.cls-5,.cls-6,.cls-7{mix-blend-mode:hard-light;}.cls-3{fill:url(#linear-gradient-2);}.cls-4{fill:url(#linear-gradient-3);}.cls-5{fill:url(#Degradado_sin_nombre_3);}.cls-7{fill:url(#linear-gradient-4);}.cls-8{fill:#999;}</style><linearGradient id="linear-gradient" x1="-1587.91" y1="-7590.5" x2="-1358.1" y2="-7590.5" gradientTransform="translate(7942.51 -921.46) rotate(-90)" gradientUnits="userSpaceOnUse"><stop offset="0" stop-color="#f62c84"/><stop offset="0.23" stop-color="#e1309c"/><stop offset="0.72" stop-color="#ab38d9"/><stop offset="1" stop-color="#8a3eff"/></linearGradient><linearGradient id="linear-gradient-2" x1="489.85" y1="394.84" x2="303.22" y2="579.47" gradientTransform="matrix(1, 0, 0, 1, 0, 0)" xlink:href="#linear-gradient"/><linearGradient id="linear-gradient-3" x1="431.77" y1="411.31" x2="584.85" y2="550.94" gradientUnits="userSpaceOnUse"><stop offset="0" stop-color="#afddff"/><stop offset="0.03" stop-color="#acdaff"/><stop offset="0.69" stop-color="#709dff"/><stop offset="1" stop-color="#5885ff"/></linearGradient><linearGradient id="Degradado_sin_nombre_3" x1="615.98" y1="494.76" x2="474.68" y2="631.01" gradientUnits="userSpaceOnUse"><stop offset="0" stop-color="#5885ff"/><stop offset="0.31" stop-color="#709dff"/><stop offset="0.97" stop-color="#acdaff"/><stop offset="1" stop-color="#afddff"/></linearGradient><linearGradient id="linear-gradient-4" x1="1209.96" y1="538.25" x2="1710.49" y2="538.25" gradientTransform="matrix(1, 0, 0, 1, 0, 0)" xlink:href="#linear-gradient"/></defs><title>Logo VA</title><g class="cls-1"><g id="Capa_1" data-name="Capa 1"><path class="cls-2" d="M313,469.87l-40.4,40.4a37.84,37.84,0,0,0,0,53.52L362,653.16a45.34,45.34,0,0,0,64.14,0l3-3a45.35,45.35,0,0,0,0-64.15s-79.3-77.78-83.1-83.1c-5.74-6.23-21.17-39.43,0-66.27Z"/><path class="cls-3" d="M313,604.22l-40.29-40.29a38,38,0,0,1,0-53.73L362,420.93a45.36,45.36,0,0,1,64.14,0l3,3a45.35,45.35,0,0,1,0,64.15s-79.3,77.77-83.1,83.1c-5.74,6.23-21.17,39.42,0,66.27Z"/><path class="cls-4" d="M603.52,605.63l40.39-40.4a37.82,37.82,0,0,0,0-53.52l-89.37-89.37a45.34,45.34,0,0,0-64.14,0l-3,3a45.34,45.34,0,0,0,0,64.14s79.3,77.78,83.09,83.1c5.75,6.24,21.18,39.43,0,66.27Z"/><path class="cls-5" d="M603.52,471.28l40.29,40.29a38,38,0,0,1,0,53.73l-89.27,89.27a45.36,45.36,0,0,1-64.14,0l-3-3a45.35,45.35,0,0,1,0-64.15s79.3-77.77,83.09-83.09c5.75-6.24,21.18-39.43,0-66.27Z"/><path class="cls-6" d="M735.78,504.25l20,50,20.24-50h11.93l-32.41,77.62-31.65-77.62Zm81.58,0v72.19H806.47V504.25Zm51.38,41.43,22.35,30.76H877.77l-20.62-29.55h-2v29.55H844.29V504.25h12.76q14.31,0,20.67,5.38,7,6,7,15.8a20.53,20.53,0,0,1-4.39,13.19A19.6,19.6,0,0,1,868.74,545.68Zm-13.56-8.28h3.46q15.48,0,15.48-11.83,0-11.09-15.06-11.08h-3.88Zm75.41-22.91v62H919.7v-62H903.1V504.25h44v10.24Zm46.75-10.24v43.49q0,9.3,3,13.6,4.53,6.23,12.77,6.22t12.81-6.22q3-4.15,3-13.6V504.25h10.89v46.48q0,11.4-7.11,18.79a27.49,27.49,0,0,1-39.23,0q-7.11-7.38-7.1-18.79V504.25Zm108.75,54.66h-30.91l-8,17.53h-11.73l35.72-76.73,34.46,76.73h-11.92Zm-4.44-10.24-10.71-24.55-11.22,24.55Zm53.43-44.42v62h21.23v10.23h-32.12V504.25Z"/><path class="cls-7" d="M1262.1,576.32l-20-50-20.24,50H1210l32.41-77.62L1274,576.32Zm67.61-37.47h29.83v2.39a49.23,49.23,0,0,1-1.92,14.4,30.6,30.6,0,0,1-6.31,10.85q-10.05,11.31-25.58,11.31a35.17,35.17,0,0,1-26-10.94,37.69,37.69,0,0,1,42.74-60.55q7,3.46,13.79,11.22l-7.76,7.43q-8.88-11.82-21.65-11.82a25.84,25.84,0,0,0-19.21,7.9q-7.77,7.76-7.77,19.45a25.62,25.62,0,0,0,8.65,19.87q8.1,7.25,17.54,7.25a21.76,21.76,0,0,0,14.45-5.43,19.28,19.28,0,0,0,7.15-13.09h-18Zm64-34.6v72.19h-10.89V504.25Zm37.82,0v62h21.23v10.23h-32.13V504.25Zm52,0v72.19h-10.89V504.25Zm46.84,10.24v62h-10.89v-62h-16.6V504.25h44v10.24Zm46.75-10.24v72.19h-10.89V504.25Zm66.76,10.24H1615v17.35h28.1v10.24H1615v24.13h28.94v10.23h-39.84V504.25h39.84Zm64.71.52-8.84,5.23c-1.65-2.87-3.23-4.74-4.72-5.61a12.58,12.58,0,0,0-13.56,1.08,8,8,0,0,0-3,6.36q0,5.28,7.86,8.51l7.2,2.94q8.79,3.56,12.86,8.67a19.58,19.58,0,0,1,4.07,12.56,22.08,22.08,0,0,1-6.64,16.46,22.81,22.81,0,0,1-16.6,6.54q-9.4,0-15.53-5.56t-7.52-15.66l11-2.43q.75,6.35,2.62,8.79,3.36,4.67,9.82,4.67a11.41,11.41,0,0,0,8.46-3.41,11.8,11.8,0,0,0,3.37-8.65,12.16,12.16,0,0,0-.59-3.86,9.8,9.8,0,0,0-1.82-3.23,14.76,14.76,0,0,0-3.2-2.76,31.6,31.6,0,0,0-4.68-2.45l-7-2.9Q1667.42,534,1667.42,522a17.36,17.36,0,0,1,6.22-13.6,22.48,22.48,0,0,1,15.48-5.52Q1701.6,502.85,1708.62,515ZM1262.1,576.32l-20-50-20.24,50H1210l32.41-77.62L1274,576.32Zm67.61-37.47h29.83v2.39a49.23,49.23,0,0,1-1.92,14.4,30.6,30.6,0,0,1-6.31,10.85q-10.05,11.31-25.58,11.31a35.17,35.17,0,0,1-26-10.94,37.69,37.69,0,0,1,42.74-60.55q7,3.46,13.79,11.22l-7.76,7.43q-8.88-11.82-21.65-11.82a25.84,25.84,0,0,0-19.21,7.9q-7.77,7.76-7.77,19.45a25.62,25.62,0,0,0,8.65,19.87q8.1,7.25,17.54,7.25a21.76,21.76,0,0,0,14.45-5.43,19.28,19.28,0,0,0,7.15-13.09h-18Zm64-34.6v72.19h-10.89V504.25Zm37.82,0v62h21.23v10.23h-32.13V504.25Zm52,0v72.19h-10.89V504.25Zm46.84,10.24v62h-10.89v-62h-16.6V504.25h44v10.24Zm46.75-10.24v72.19h-10.89V504.25Zm66.76,10.24H1615v17.35h28.1v10.24H1615v24.13h28.94v10.23h-39.84V504.25h39.84Zm64.71.52-8.84,5.23c-1.65-2.87-3.23-4.74-4.72-5.61a12.58,12.58,0,0,0-13.56,1.08,8,8,0,0,0-3,6.36q0,5.28,7.86,8.51l7.2,2.94q8.79,3.56,12.86,8.67a19.58,19.58,0,0,1,4.07,12.56,22.08,22.08,0,0,1-6.64,16.46,22.81,22.81,0,0,1-16.6,6.54q-9.4,0-15.53-5.56t-7.52-15.66l11-2.43q.75,6.35,2.62,8.79,3.36,4.67,9.82,4.67a11.41,11.41,0,0,0,8.46-3.41,11.8,11.8,0,0,0,3.37-8.65,12.16,12.16,0,0,0-.59-3.86,9.8,9.8,0,0,0-1.82-3.23,14.76,14.76,0,0,0-3.2-2.76,31.6,31.6,0,0,0-4.68-2.45l-7-2.9Q1667.42,534,1667.42,522a17.36,17.36,0,0,1,6.22-13.6,22.48,22.48,0,0,1,15.48-5.52Q1701.6,502.85,1708.62,515Z"/><g class="cls-6"><path class="cls-8" d="M1745,535.71a15,15,0,1,1,10.59-4.41A14.48,14.48,0,0,1,1745,535.71Zm0-1.87a12.63,12.63,0,0,0,9.29-3.84,13.18,13.18,0,0,0-18.64-18.63,13.22,13.22,0,0,0,0,18.63A12.73,12.73,0,0,0,1745,533.84Zm2.36-12.21,5,7.56H1750l-4.69-7.56h-3.84v7.56h-1.86V512.78h7.18q3.13,0,4.47,1.11a4,4,0,0,1,1.34,3.24Q1752.55,521.46,1747.39,521.63Zm-6-1.87h3.22l.81,0a6.61,6.61,0,0,0,.9,0l.87,0a5.15,5.15,0,0,0,.91-.09l.8-.2a2,2,0,0,0,.71-.31,3.93,3.93,0,0,0,.55-.48,1.58,1.58,0,0,0,.38-.68,3,3,0,0,0,.12-.89q0-2.45-4.42-2.45h-4.85Z"/></g></g></g></svg>